<?xml version="1.0" encoding="utf-8"?>
<!-- Generator: Adobe Illustrator 23.0.3, SVG Export Plug-In . SVG Version: 6.00 Build 0)  -->
<svg version="1.1" id="Layer_1" xmlns="http://www.w3.org/2000/svg" xmlns:xlink="http://www.w3.org/1999/xlink" x="0px" y="0px"
	 viewBox="0 0 75.24 15.15" style="enable-background:new 0 0 75.24 15.15;" xml:space="preserve">
<g>
	<path style="fill:#FFFFFF;" d="M26.04,0.22h-4.32c-0.32,0-0.57,0.19-0.57,0.51l-1.78,11.12c0,0.19,0.13,0.38,0.32,0.44h0.06h2.1
		c0.32,0,0.57-0.19,0.57-0.51l0.44-2.99c0.06-0.32,0.32-0.51,0.57-0.51h1.4c2.86,0,4.51-1.4,4.96-4.13c0.19-1.21,0-2.16-0.57-2.8
		C28.59,0.66,27.5,0.22,26.04,0.22z M26.55,4.35c-0.25,1.59-1.4,1.59-2.61,1.59h-0.64l0.44-2.92c0-0.19,0.19-0.32,0.38-0.32h0.32
		c0.76,0,1.53,0,1.91,0.44C26.55,3.39,26.62,3.78,26.55,4.35z M39.07,4.28h-2.1c-0.19,0-0.32,0.13-0.38,0.32l-0.06,0.57L36.4,4.98
		c-0.44-0.64-1.46-0.89-2.48-0.89c-2.29,0-4.26,1.72-4.64,4.2c-0.19,1.21,0.06,2.42,0.76,3.18c0.64,0.76,1.53,1.08,2.61,1.08
		c1.84,0,2.86-1.21,2.86-1.21l-0.06,0.57c0,0.19,0.13,0.38,0.32,0.44h0.06h1.91c0.32,0,0.57-0.19,0.57-0.51l1.14-7.12
		C39.46,4.48,39.33,4.28,39.07,4.28L39.07,4.28z M36.15,8.29c-0.19,1.21-1.14,1.97-2.35,1.97c-0.64,0-1.08-0.19-1.4-0.57
		c-0.32-0.38-0.44-0.89-0.32-1.46c0.19-1.21,1.14-2.03,2.35-2.03c0.57,0,1.08,0.19,1.4,0.57C36.09,7.21,36.21,7.72,36.15,8.29z
		 M50.13,4.28h-2.1c-0.19,0-0.38,0.13-0.51,0.25L44.67,8.8l-1.21-4.07c-0.06-0.25-0.32-0.44-0.57-0.44h-2.03
		c-0.19,0-0.38,0.19-0.38,0.38c0,0.06,0,0.06,0,0.13l2.29,6.74l-2.16,3.05c-0.13,0.19-0.06,0.38,0.06,0.51
		c0.06,0.06,0.13,0.06,0.19,0.06h2.1c0.19,0,0.38-0.13,0.51-0.25l6.99-10.04c0.13-0.19,0.06-0.38-0.06-0.51
		C50.26,4.28,50.2,4.28,50.13,4.28L50.13,4.28z"/>
	<path style="fill:#FFFFFF;" d="M57.06,0.22h-4.32c-0.32,0-0.57,0.19-0.57,0.51l-1.78,11.12c0,0.19,0.13,0.38,0.32,0.44h0.06H53
		c0.19,0,0.38-0.13,0.44-0.38l0.51-3.18c0.06-0.32,0.32-0.51,0.57-0.51h1.4c2.86,0,4.51-1.4,4.96-4.13c0.19-1.21,0-2.16-0.57-2.8
		C59.61,0.66,58.53,0.22,57.06,0.22z M57.57,4.35c-0.25,1.59-1.4,1.59-2.61,1.59h-0.64l0.44-2.92c0-0.19,0.19-0.32,0.38-0.32h0.32
		c0.76,0,1.53,0,1.91,0.44C57.57,3.39,57.64,3.78,57.57,4.35z M70.03,4.28h-2.1c-0.19,0-0.32,0.13-0.38,0.32l-0.06,0.57l-0.13-0.19
		c-0.44-0.64-1.46-0.89-2.48-0.89c-2.29,0-4.26,1.72-4.64,4.2C60.05,9.5,60.31,10.7,61,11.47c0.64,0.76,1.53,1.08,2.61,1.08
		c1.84,0,2.86-1.21,2.86-1.21l-0.06,0.57c0,0.19,0.13,0.38,0.32,0.44h0.06h1.84c0.32,0,0.57-0.19,0.57-0.51l1.14-7.12
		C70.41,4.48,70.29,4.28,70.03,4.28C70.09,4.28,70.09,4.28,70.03,4.28z M67.17,8.29c-0.19,1.21-1.14,1.97-2.35,1.97
		c-0.57,0-1.08-0.19-1.4-0.57C63.1,9.31,62.98,8.8,63.1,8.23c0.19-1.21,1.14-2.03,2.35-2.03c0.57,0,1.08,0.19,1.4,0.57
		C67.11,7.21,67.23,7.72,67.17,8.29z M72.51,0.53l-1.78,11.38c0,0.19,0.13,0.38,0.32,0.44h0.06h1.78c0.32,0,0.57-0.19,0.57-0.51
		l1.78-11.12c0-0.19-0.13-0.38-0.32-0.44h-0.06h-2.03C72.7,0.22,72.51,0.41,72.51,0.53z"/>
	<g>
		<path style="fill:#ADE0F6;" d="M10.66,3.55c0.17-1.09,0-1.82-0.59-2.49C9.42,0.32,8.25,0,6.76,0H2.42C2.12,0,1.86,0.22,1.81,0.52
			L0,11.98c-0.04,0.23,0.14,0.43,0.37,0.43h2.68l-0.18,1.17c-0.03,0.2,0.12,0.38,0.32,0.38h2.26c0.27,0,0.49-0.19,0.54-0.46L6,13.38
			l0.43-2.7l0.03-0.15c0.04-0.26,0.27-0.46,0.54-0.46h0.34c2.19,0,3.9-0.89,4.4-3.46c0.21-1.07,0.1-1.97-0.45-2.6
			C11.11,3.83,10.9,3.67,10.66,3.55L10.66,3.55"/>
		<path style="fill:#EAF7FE;" d="M10.66,3.55c0.17-1.09,0-1.82-0.59-2.49C9.42,0.32,8.25,0,6.76,0H2.42C2.12,0,1.86,0.22,1.81,0.52
			L0,11.98c-0.04,0.23,0.14,0.43,0.37,0.43h2.68l0.67-4.26L3.7,8.27c0.05-0.3,0.31-0.52,0.61-0.52h1.27c2.5,0,4.46-1.02,5.03-3.95
			C10.63,3.71,10.64,3.63,10.66,3.55"/>
		<path style="fill:#FFFFFF;" d="M4.44,3.56c0.03-0.18,0.15-0.33,0.3-0.41C4.82,3.12,4.9,3.1,4.98,3.1h3.4
			c0.4,0,0.78,0.03,1.12,0.08C9.6,3.2,9.7,3.22,9.79,3.24c0.09,0.02,0.18,0.04,0.27,0.07c0.04,0.01,0.09,0.03,0.13,0.04
			c0.17,0.06,0.33,0.12,0.47,0.2c0.17-1.09,0-1.82-0.59-2.49C9.42,0.32,8.25,0,6.76,0H2.42C2.12,0,1.86,0.22,1.81,0.52L0,11.98
			c-0.04,0.23,0.14,0.43,0.37,0.43h2.68l0.67-4.26L4.44,3.56z"/>
	</g>
</g>
</svg>
