<svg enable-background="new 0 0 74.2 13.9" viewBox="0 0 74.2 13.9" xmlns="http://www.w3.org/2000/svg"><path d="m10.7 3.5c.2-1.1 0-1.8-.6-2.5-.7-.7-1.9-1-3.3-1h-4.4c-.3 0-.5.2-.6.5l-1.8 11.5c0 .2.1.4.4.4h2.6l-.2 1.2c0 .2.2.4.4.4h2.3c.3 0 .5-.2.5-.5v-.1l.4-2.7v-.1c0-.3.3-.5.5-.5h.3c2.2 0 3.9-.9 4.4-3.5.2-1.1.1-2-.4-2.6-.1-.2-.3-.3-.5-.5z" fill="#ade0f6"/><path d="m10.7 3.5c.2-1.1 0-1.8-.6-2.5-.7-.7-1.9-1-3.3-1h-4.4c-.3 0-.5.2-.6.5l-1.8 11.5c0 .2.1.4.4.4h2.6l.7-4.3v.1c0-.2.3-.5.6-.5h1.3c2.5 0 4.5-1 5-4 0 0 0-.1.1-.2" fill="#eaf7fe"/><g fill="#fff"><path d="m4.4 3.6c0-.2.2-.3.3-.4h.2 3.4c.4 0 .8 0 1.1.1.1 0 .2 0 .3.1s.2 0 .3.1h.1c.2.1.3.1.5.2.2-1.1 0-1.8-.6-2.5-.6-.9-1.7-1.2-3.2-1.2h-4.4c-.3 0-.5.2-.6.5l-1.8 11.5c0 .2.1.4.4.4h2.7l.7-4.3z"/><path d="m48.9 1.3c.1-.3.3-.4.5-.4h4.3c3.6 0 6.1 2.7 5.5 6.1-.5 3.4-3.9 6.1-7.5 6.1h-4.4c-.2 0-.3-.1-.2-.3zm1.9 9.1h.8c1.9 0 3.8-1 4.2-3.4.3-2.2-.9-3.4-3.1-3.4h-.6c-.1 0-.2.1-.2.2z"/><path d="m43.4 3.9-.3 1.7h3.4c.2 0 .3.1.3.3l-.3 2c-.1.2-.2.3-.5.3h-2.9c-.2 0-.4.2-.5.4l-.3 1.7h3.7c.2 0 .3.1.2.3l-.3 2c-.1.2-.2.4-.5.4h-6.5c-.2 0-.3-.2-.3-.3l1.9-11.5c.1-.2.3-.3.5-.3h6.6c.1 0 .3.2.2.3l-.3 2c-.1.2-.3.3-.5.3h-3.2c-.2.1-.4.2-.4.4z"/><path d="m62.1 13.1h-2.6c-.2 0-.3-.1-.3-.3l1.9-11.5c0-.2.2-.4.4-.4h2.7c.1 0 .3.2.2.4l-1.9 11.5c0 .1-.2.3-.4.3z"/><path d="m37.7 13.1h-3.4c-.2 0-.3-.1-.3-.2l-2.2-4.5h-.1l-.7 4.4c-.1.2-.2.3-.4.3h-2.7c-.2 0-.3-.1-.2-.3l1.9-11.6c.1-.2.2-.4.4-.4h4.6c2.5 0 4.3 1.2 3.9 3.8-.3 1.7-1.5 3.2-3.4 3.5l2.9 4.6c.1.2-.1.4-.3.4zm-5.7-6.7h.3c1.1 0 2.3-.2 2.6-1.6.2-1.3-.5-1.5-1.7-1.5h-.5c-.2 0-.3.1-.3.2z"/><path d="m69.1 13.1h-2.6c-.2 0-.3-.1-.2-.3l1.5-9.2h-2.4c-.2 0-.3-.2-.2-.3l.3-2c.1-.2.2-.4.5-.4h8c.1 0 .3.2.2.4l-.3 2c0 .2-.2.4-.4.4h-2.3l-1.5 9.1c-.1.1-.3.3-.6.3z"/><path d="m27.8 4.3c0 .2-.3.3-.5.2-.6-.6-1.4-.9-2.3-.9-2.1 0-3.6 1.5-4 3.4-.3 1.9.9 3.3 2.9 3.3.8 0 1.8-.3 2.5-.8.2-.1.5.1.5.3l-.5 2.8c-.1.2-.2.3-.4.4-1 .3-1.8.5-2.7.5-5.5 0-6.4-4.5-6.1-6.4.8-5.4 5.4-6.6 8.1-6.4.9 0 1.7.1 2.5.4.3.1.4.4.4.6z"/></g></svg>